%TF.GenerationSoftware,KiCad,Pcbnew,(5.1.10)-1*%
%TF.CreationDate,2021-10-09T18:12:54+02:00*%
%TF.ProjectId,ColorTest,436f6c6f-7254-4657-9374-2e6b69636164,rev?*%
%TF.SameCoordinates,Original*%
%TF.FileFunction,Copper,L2,Bot*%
%TF.FilePolarity,Positive*%
%FSLAX46Y46*%
G04 Gerber Fmt 4.6, Leading zero omitted, Abs format (unit mm)*
G04 Created by KiCad (PCBNEW (5.1.10)-1) date 2021-10-09 18:12:54*
%MOMM*%
%LPD*%
G01*
G04 APERTURE LIST*
%TA.AperFunction,NonConductor*%
%ADD10C,0.100000*%
%TD*%
%TA.AperFunction,NonConductor*%
%ADD11C,0.250000*%
%TD*%
%TA.AperFunction,NonConductor*%
%ADD12C,0.125000*%
%TD*%
%TA.AperFunction,NonConductor*%
%ADD13C,0.150000*%
%TD*%
%TA.AperFunction,NonConductor*%
%ADD14C,0.200000*%
%TD*%
%TA.AperFunction,NonConductor*%
%ADD15C,0.500000*%
%TD*%
%TA.AperFunction,NonConductor*%
%ADD16C,0.300000*%
%TD*%
%TA.AperFunction,NonConductor*%
%ADD17C,0.400000*%
%TD*%
%TA.AperFunction,EtchedComponent*%
%ADD18C,0.125000*%
%TD*%
%TA.AperFunction,NonConductor*%
%ADD19C,0.254000*%
%TD*%
G04 APERTURE END LIST*
D10*
X59750000Y-70000000D02*
X82500000Y-70000000D01*
D11*
X59750000Y-78000000D02*
X82500000Y-78000000D01*
D12*
X59750000Y-72000000D02*
X82500000Y-72000000D01*
D13*
X59750000Y-74000000D02*
X82500000Y-74000000D01*
D14*
X59750000Y-76000000D02*
X82500000Y-76000000D01*
D15*
X59750000Y-84000000D02*
X82500000Y-84000000D01*
D16*
X59750000Y-80000000D02*
X82500000Y-80000000D01*
D17*
X59750000Y-82000000D02*
X82500000Y-82000000D01*
D18*
%TO.C,REF\u002A\u002A*%
X99000000Y-99400000D02*
X99000000Y-98650000D01*
X98500000Y-99700000D02*
X98500000Y-98900000D01*
X98000000Y-99850000D02*
X98000000Y-98650000D01*
X97500000Y-99900000D02*
X97500000Y-98900000D01*
X97000000Y-99900000D02*
X97000000Y-98650000D01*
X96500000Y-99900000D02*
X96500000Y-98900000D01*
X96000000Y-99900000D02*
X96000000Y-98650000D01*
X95500000Y-99900000D02*
X95500000Y-98900000D01*
X95000000Y-99900000D02*
X95000000Y-98150000D01*
X91500000Y-99900000D02*
X91500000Y-98900000D01*
X91000000Y-99900000D02*
X91000000Y-98650000D01*
X90500000Y-99900000D02*
X90500000Y-98900000D01*
X94500000Y-99900000D02*
X94500000Y-98900000D01*
X94000000Y-99900000D02*
X94000000Y-98650000D01*
X93500000Y-99900000D02*
X93500000Y-98900000D01*
X93000000Y-99900000D02*
X93000000Y-98650000D01*
X92500000Y-99900000D02*
X92500000Y-98900000D01*
X92000000Y-99900000D02*
X92000000Y-98650000D01*
X90000000Y-99900000D02*
X90000000Y-98150000D01*
X86500000Y-99900000D02*
X86500000Y-98900000D01*
X86000000Y-99900000D02*
X86000000Y-98650000D01*
X85500000Y-99900000D02*
X85500000Y-98900000D01*
X89500000Y-99900000D02*
X89500000Y-98900000D01*
X89000000Y-99900000D02*
X89000000Y-98650000D01*
X88500000Y-99900000D02*
X88500000Y-98900000D01*
X88000000Y-99900000D02*
X88000000Y-98650000D01*
X87500000Y-99900000D02*
X87500000Y-98900000D01*
X87000000Y-99900000D02*
X87000000Y-98650000D01*
X80000000Y-99900000D02*
X80000000Y-98150000D01*
X85000000Y-99900000D02*
X85000000Y-98150000D01*
X83000000Y-99900000D02*
X83000000Y-98650000D01*
X82000000Y-99900000D02*
X82000000Y-98650000D01*
X84500000Y-99900000D02*
X84500000Y-98900000D01*
X81500000Y-99900000D02*
X81500000Y-98900000D01*
X83500000Y-99900000D02*
X83500000Y-98900000D01*
X80500000Y-99900000D02*
X80500000Y-98900000D01*
X82500000Y-99900000D02*
X82500000Y-98900000D01*
X84000000Y-99900000D02*
X84000000Y-98650000D01*
X81000000Y-99900000D02*
X81000000Y-98650000D01*
X76500000Y-99900000D02*
X76500000Y-98900000D01*
X76000000Y-99900000D02*
X76000000Y-98650000D01*
X75500000Y-99900000D02*
X75500000Y-98900000D01*
X79500000Y-99900000D02*
X79500000Y-98900000D01*
X79000000Y-99900000D02*
X79000000Y-98650000D01*
X78500000Y-99900000D02*
X78500000Y-98900000D01*
X78000000Y-99900000D02*
X78000000Y-98650000D01*
X77500000Y-99900000D02*
X77500000Y-98900000D01*
X77000000Y-99900000D02*
X77000000Y-98650000D01*
X70000000Y-99900000D02*
X70000000Y-98150000D01*
X75000000Y-99900000D02*
X75000000Y-98150000D01*
X73000000Y-99900000D02*
X73000000Y-98650000D01*
X72000000Y-99900000D02*
X72000000Y-98650000D01*
X74500000Y-99900000D02*
X74500000Y-98900000D01*
X71500000Y-99900000D02*
X71500000Y-98900000D01*
X73500000Y-99900000D02*
X73500000Y-98900000D01*
X70500000Y-99900000D02*
X70500000Y-98900000D01*
X72500000Y-99900000D02*
X72500000Y-98900000D01*
X74000000Y-99900000D02*
X74000000Y-98650000D01*
X71000000Y-99900000D02*
X71000000Y-98650000D01*
X66500000Y-99900000D02*
X66500000Y-98900000D01*
X66000000Y-99900000D02*
X66000000Y-98650000D01*
X65500000Y-99900000D02*
X65500000Y-98900000D01*
X69500000Y-99900000D02*
X69500000Y-98900000D01*
X69000000Y-99900000D02*
X69000000Y-98650000D01*
X68500000Y-99900000D02*
X68500000Y-98900000D01*
X68000000Y-99900000D02*
X68000000Y-98650000D01*
X67500000Y-99900000D02*
X67500000Y-98900000D01*
X67000000Y-99900000D02*
X67000000Y-98650000D01*
X60000000Y-99900000D02*
X60000000Y-98150000D01*
X65000000Y-99900000D02*
X65000000Y-98150000D01*
X63000000Y-99900000D02*
X63000000Y-98650000D01*
X62000000Y-99900000D02*
X62000000Y-98650000D01*
X64500000Y-99900000D02*
X64500000Y-98900000D01*
X61500000Y-99900000D02*
X61500000Y-98900000D01*
X63500000Y-99900000D02*
X63500000Y-98900000D01*
X60500000Y-99900000D02*
X60500000Y-98900000D01*
X62500000Y-99900000D02*
X62500000Y-98900000D01*
X64000000Y-99900000D02*
X64000000Y-98650000D01*
X61000000Y-99900000D02*
X61000000Y-98650000D01*
X56500000Y-99900000D02*
X56500000Y-98900000D01*
X56000000Y-99900000D02*
X56000000Y-98650000D01*
X55500000Y-99900000D02*
X55500000Y-98900000D01*
X59500000Y-99900000D02*
X59500000Y-98900000D01*
X59000000Y-99900000D02*
X59000000Y-98650000D01*
X58500000Y-99900000D02*
X58500000Y-98900000D01*
X58000000Y-99900000D02*
X58000000Y-98650000D01*
X57500000Y-99900000D02*
X57500000Y-98900000D01*
X57000000Y-99900000D02*
X57000000Y-98650000D01*
X55000000Y-99900000D02*
X55000000Y-98150000D01*
X99000000Y-99400000D02*
X51000000Y-99400000D01*
X54000000Y-99900000D02*
X54000000Y-98650000D01*
X51500000Y-99700000D02*
X51500000Y-98900000D01*
X53500000Y-99900000D02*
X53500000Y-98900000D01*
X54500000Y-99900000D02*
X54500000Y-98900000D01*
X52500000Y-99900000D02*
X52500000Y-98900000D01*
X53000000Y-99900000D02*
X53000000Y-98650000D01*
X51000000Y-99400000D02*
X51000000Y-98650000D01*
X52000000Y-99850000D02*
X52000000Y-98650000D01*
%TD*%
D19*
X99594001Y-97480136D02*
X99579993Y-97623000D01*
X50419391Y-97623000D01*
X50406000Y-97495594D01*
X50406000Y-86127000D01*
X99594001Y-86127000D01*
X99594001Y-97480136D01*
%TA.AperFunction,NonConductor*%
D10*
G36*
X99594001Y-97480136D02*
G01*
X99579993Y-97623000D01*
X50419391Y-97623000D01*
X50406000Y-97495594D01*
X50406000Y-86127000D01*
X99594001Y-86127000D01*
X99594001Y-97480136D01*
G37*
%TD.AperFunction*%
D19*
X97906345Y-50447789D02*
X98297222Y-50565802D01*
X98657723Y-50757484D01*
X98974131Y-51015539D01*
X99234390Y-51330138D01*
X99428586Y-51689295D01*
X99549323Y-52079333D01*
X99594000Y-52504406D01*
X99594000Y-67873000D01*
X50406000Y-67873000D01*
X50406000Y-52519854D01*
X50424054Y-52335723D01*
X95832070Y-52335723D01*
X95832070Y-52664277D01*
X95896168Y-52986517D01*
X96021900Y-53290061D01*
X96204434Y-53563243D01*
X96436757Y-53795566D01*
X96709939Y-53978100D01*
X97013483Y-54103832D01*
X97335723Y-54167930D01*
X97664277Y-54167930D01*
X97986517Y-54103832D01*
X98290061Y-53978100D01*
X98563243Y-53795566D01*
X98795566Y-53563243D01*
X98978100Y-53290061D01*
X99103832Y-52986517D01*
X99167930Y-52664277D01*
X99167930Y-52335723D01*
X99103832Y-52013483D01*
X98978100Y-51709939D01*
X98795566Y-51436757D01*
X98563243Y-51204434D01*
X98290061Y-51021900D01*
X97986517Y-50896168D01*
X97664277Y-50832070D01*
X97335723Y-50832070D01*
X97013483Y-50896168D01*
X96709939Y-51021900D01*
X96436757Y-51204434D01*
X96204434Y-51436757D01*
X96021900Y-51709939D01*
X95896168Y-52013483D01*
X95832070Y-52335723D01*
X50424054Y-52335723D01*
X50447789Y-52093655D01*
X50565802Y-51702778D01*
X50757484Y-51342277D01*
X51015539Y-51025869D01*
X51330138Y-50765610D01*
X51689295Y-50571414D01*
X52079333Y-50450677D01*
X52504406Y-50406000D01*
X97480146Y-50406000D01*
X97906345Y-50447789D01*
%TA.AperFunction,NonConductor*%
D10*
G36*
X97906345Y-50447789D02*
G01*
X98297222Y-50565802D01*
X98657723Y-50757484D01*
X98974131Y-51015539D01*
X99234390Y-51330138D01*
X99428586Y-51689295D01*
X99549323Y-52079333D01*
X99594000Y-52504406D01*
X99594000Y-67873000D01*
X50406000Y-67873000D01*
X50406000Y-52519854D01*
X50424054Y-52335723D01*
X95832070Y-52335723D01*
X95832070Y-52664277D01*
X95896168Y-52986517D01*
X96021900Y-53290061D01*
X96204434Y-53563243D01*
X96436757Y-53795566D01*
X96709939Y-53978100D01*
X97013483Y-54103832D01*
X97335723Y-54167930D01*
X97664277Y-54167930D01*
X97986517Y-54103832D01*
X98290061Y-53978100D01*
X98563243Y-53795566D01*
X98795566Y-53563243D01*
X98978100Y-53290061D01*
X99103832Y-52986517D01*
X99167930Y-52664277D01*
X99167930Y-52335723D01*
X99103832Y-52013483D01*
X98978100Y-51709939D01*
X98795566Y-51436757D01*
X98563243Y-51204434D01*
X98290061Y-51021900D01*
X97986517Y-50896168D01*
X97664277Y-50832070D01*
X97335723Y-50832070D01*
X97013483Y-50896168D01*
X96709939Y-51021900D01*
X96436757Y-51204434D01*
X96204434Y-51436757D01*
X96021900Y-51709939D01*
X95896168Y-52013483D01*
X95832070Y-52335723D01*
X50424054Y-52335723D01*
X50447789Y-52093655D01*
X50565802Y-51702778D01*
X50757484Y-51342277D01*
X51015539Y-51025869D01*
X51330138Y-50765610D01*
X51689295Y-50571414D01*
X52079333Y-50450677D01*
X52504406Y-50406000D01*
X97480146Y-50406000D01*
X97906345Y-50447789D01*
G37*
%TD.AperFunction*%
M02*
