%TF.GenerationSoftware,KiCad,Pcbnew,(5.1.10)-1*%
%TF.CreationDate,2021-10-09T18:12:54+02:00*%
%TF.ProjectId,ColorTest,436f6c6f-7254-4657-9374-2e6b69636164,rev?*%
%TF.SameCoordinates,Original*%
%TF.FileFunction,Copper,L1,Top*%
%TF.FilePolarity,Positive*%
%FSLAX46Y46*%
G04 Gerber Fmt 4.6, Leading zero omitted, Abs format (unit mm)*
G04 Created by KiCad (PCBNEW (5.1.10)-1) date 2021-10-09 18:12:54*
%MOMM*%
%LPD*%
G01*
G04 APERTURE LIST*
%TA.AperFunction,NonConductor*%
%ADD10C,0.254000*%
%TD*%
%TA.AperFunction,NonConductor*%
%ADD11C,0.100000*%
%TD*%
G04 APERTURE END LIST*
D10*
X74873000Y-99594000D02*
X52519854Y-99594000D01*
X52093654Y-99552211D01*
X51702781Y-99434199D01*
X51342274Y-99242514D01*
X51025865Y-98984457D01*
X50765609Y-98669860D01*
X50571414Y-98310704D01*
X50450677Y-97920667D01*
X50406000Y-97495594D01*
X50406000Y-89877000D01*
X74873000Y-89877000D01*
X74873000Y-99594000D01*
%TA.AperFunction,NonConductor*%
D11*
G36*
X74873000Y-99594000D02*
G01*
X52519854Y-99594000D01*
X52093654Y-99552211D01*
X51702781Y-99434199D01*
X51342274Y-99242514D01*
X51025865Y-98984457D01*
X50765609Y-98669860D01*
X50571414Y-98310704D01*
X50450677Y-97920667D01*
X50406000Y-97495594D01*
X50406000Y-89877000D01*
X74873000Y-89877000D01*
X74873000Y-99594000D01*
G37*
%TD.AperFunction*%
D10*
X97906345Y-50447789D02*
X98297222Y-50565802D01*
X98657723Y-50757484D01*
X98974131Y-51015539D01*
X99234390Y-51330138D01*
X99428586Y-51689295D01*
X99549323Y-52079333D01*
X99594000Y-52504406D01*
X99594000Y-59873000D01*
X50406000Y-59873000D01*
X50406000Y-52519854D01*
X50424054Y-52335723D01*
X95832070Y-52335723D01*
X95832070Y-52664277D01*
X95896168Y-52986517D01*
X96021900Y-53290061D01*
X96204434Y-53563243D01*
X96436757Y-53795566D01*
X96709939Y-53978100D01*
X97013483Y-54103832D01*
X97335723Y-54167930D01*
X97664277Y-54167930D01*
X97986517Y-54103832D01*
X98290061Y-53978100D01*
X98563243Y-53795566D01*
X98795566Y-53563243D01*
X98978100Y-53290061D01*
X99103832Y-52986517D01*
X99167930Y-52664277D01*
X99167930Y-52335723D01*
X99103832Y-52013483D01*
X98978100Y-51709939D01*
X98795566Y-51436757D01*
X98563243Y-51204434D01*
X98290061Y-51021900D01*
X97986517Y-50896168D01*
X97664277Y-50832070D01*
X97335723Y-50832070D01*
X97013483Y-50896168D01*
X96709939Y-51021900D01*
X96436757Y-51204434D01*
X96204434Y-51436757D01*
X96021900Y-51709939D01*
X95896168Y-52013483D01*
X95832070Y-52335723D01*
X50424054Y-52335723D01*
X50447789Y-52093655D01*
X50565802Y-51702778D01*
X50757484Y-51342277D01*
X51015539Y-51025869D01*
X51330138Y-50765610D01*
X51689295Y-50571414D01*
X52079333Y-50450677D01*
X52504406Y-50406000D01*
X97480146Y-50406000D01*
X97906345Y-50447789D01*
%TA.AperFunction,NonConductor*%
D11*
G36*
X97906345Y-50447789D02*
G01*
X98297222Y-50565802D01*
X98657723Y-50757484D01*
X98974131Y-51015539D01*
X99234390Y-51330138D01*
X99428586Y-51689295D01*
X99549323Y-52079333D01*
X99594000Y-52504406D01*
X99594000Y-59873000D01*
X50406000Y-59873000D01*
X50406000Y-52519854D01*
X50424054Y-52335723D01*
X95832070Y-52335723D01*
X95832070Y-52664277D01*
X95896168Y-52986517D01*
X96021900Y-53290061D01*
X96204434Y-53563243D01*
X96436757Y-53795566D01*
X96709939Y-53978100D01*
X97013483Y-54103832D01*
X97335723Y-54167930D01*
X97664277Y-54167930D01*
X97986517Y-54103832D01*
X98290061Y-53978100D01*
X98563243Y-53795566D01*
X98795566Y-53563243D01*
X98978100Y-53290061D01*
X99103832Y-52986517D01*
X99167930Y-52664277D01*
X99167930Y-52335723D01*
X99103832Y-52013483D01*
X98978100Y-51709939D01*
X98795566Y-51436757D01*
X98563243Y-51204434D01*
X98290061Y-51021900D01*
X97986517Y-50896168D01*
X97664277Y-50832070D01*
X97335723Y-50832070D01*
X97013483Y-50896168D01*
X96709939Y-51021900D01*
X96436757Y-51204434D01*
X96204434Y-51436757D01*
X96021900Y-51709939D01*
X95896168Y-52013483D01*
X95832070Y-52335723D01*
X50424054Y-52335723D01*
X50447789Y-52093655D01*
X50565802Y-51702778D01*
X50757484Y-51342277D01*
X51015539Y-51025869D01*
X51330138Y-50765610D01*
X51689295Y-50571414D01*
X52079333Y-50450677D01*
X52504406Y-50406000D01*
X97480146Y-50406000D01*
X97906345Y-50447789D01*
G37*
%TD.AperFunction*%
D10*
X99594001Y-79873000D02*
X50406000Y-79873000D01*
X50406000Y-70127000D01*
X99594000Y-70127000D01*
X99594001Y-79873000D01*
%TA.AperFunction,NonConductor*%
D11*
G36*
X99594001Y-79873000D02*
G01*
X50406000Y-79873000D01*
X50406000Y-70127000D01*
X99594000Y-70127000D01*
X99594001Y-79873000D01*
G37*
%TD.AperFunction*%
M02*
