%TF.GenerationSoftware,KiCad,Pcbnew,(5.1.10)-1*%
%TF.CreationDate,2021-10-09T18:12:54+02:00*%
%TF.ProjectId,ColorTest,436f6c6f-7254-4657-9374-2e6b69636164,rev?*%
%TF.SameCoordinates,Original*%
%TF.FileFunction,Legend,Top*%
%TF.FilePolarity,Positive*%
%FSLAX46Y46*%
G04 Gerber Fmt 4.6, Leading zero omitted, Abs format (unit mm)*
G04 Created by KiCad (PCBNEW (5.1.10)-1) date 2021-10-09 18:12:54*
%MOMM*%
%LPD*%
G01*
G04 APERTURE LIST*
%ADD10C,0.350000*%
%ADD11C,0.200000*%
%ADD12C,0.125000*%
%ADD13C,0.250000*%
%ADD14C,0.100000*%
G04 APERTURE END LIST*
D10*
X78976190Y-94134523D02*
X79261904Y-94229761D01*
X79738095Y-94229761D01*
X79928571Y-94134523D01*
X80023809Y-94039285D01*
X80119047Y-93848809D01*
X80119047Y-93658333D01*
X80023809Y-93467857D01*
X79928571Y-93372619D01*
X79738095Y-93277380D01*
X79357142Y-93182142D01*
X79166666Y-93086904D01*
X79071428Y-92991666D01*
X78976190Y-92801190D01*
X78976190Y-92610714D01*
X79071428Y-92420238D01*
X79166666Y-92325000D01*
X79357142Y-92229761D01*
X79833333Y-92229761D01*
X80119047Y-92325000D01*
X80976190Y-94229761D02*
X80976190Y-92896428D01*
X80976190Y-92229761D02*
X80880952Y-92325000D01*
X80976190Y-92420238D01*
X81071428Y-92325000D01*
X80976190Y-92229761D01*
X80976190Y-92420238D01*
X82214285Y-94229761D02*
X82023809Y-94134523D01*
X81928571Y-93944047D01*
X81928571Y-92229761D01*
X82976190Y-94229761D02*
X82976190Y-92229761D01*
X83166666Y-93467857D02*
X83738095Y-94229761D01*
X83738095Y-92896428D02*
X82976190Y-93658333D01*
X85928571Y-92896428D02*
X86309523Y-94229761D01*
X86690476Y-93277380D01*
X87071428Y-94229761D01*
X87452380Y-92896428D01*
X88214285Y-94229761D02*
X88214285Y-92896428D01*
X88214285Y-92229761D02*
X88119047Y-92325000D01*
X88214285Y-92420238D01*
X88309523Y-92325000D01*
X88214285Y-92229761D01*
X88214285Y-92420238D01*
X88880952Y-92896428D02*
X89642857Y-92896428D01*
X89166666Y-92229761D02*
X89166666Y-93944047D01*
X89261904Y-94134523D01*
X89452380Y-94229761D01*
X89642857Y-94229761D01*
X90309523Y-94229761D02*
X90309523Y-92229761D01*
X91166666Y-94229761D02*
X91166666Y-93182142D01*
X91071428Y-92991666D01*
X90880952Y-92896428D01*
X90595238Y-92896428D01*
X90404761Y-92991666D01*
X90309523Y-93086904D01*
X92404761Y-94229761D02*
X92214285Y-94134523D01*
X92119047Y-94039285D01*
X92023809Y-93848809D01*
X92023809Y-93277380D01*
X92119047Y-93086904D01*
X92214285Y-92991666D01*
X92404761Y-92896428D01*
X92690476Y-92896428D01*
X92880952Y-92991666D01*
X92976190Y-93086904D01*
X93071428Y-93277380D01*
X93071428Y-93848809D01*
X92976190Y-94039285D01*
X92880952Y-94134523D01*
X92690476Y-94229761D01*
X92404761Y-94229761D01*
X94785714Y-92896428D02*
X94785714Y-94229761D01*
X93928571Y-92896428D02*
X93928571Y-93944047D01*
X94023809Y-94134523D01*
X94214285Y-94229761D01*
X94499999Y-94229761D01*
X94690476Y-94134523D01*
X94785714Y-94039285D01*
X95452380Y-92896428D02*
X96214285Y-92896428D01*
X95738095Y-92229761D02*
X95738095Y-93944047D01*
X95833333Y-94134523D01*
X96023809Y-94229761D01*
X96214285Y-94229761D01*
X83928571Y-97389285D02*
X83833333Y-97484523D01*
X83547619Y-97579761D01*
X83357142Y-97579761D01*
X83071428Y-97484523D01*
X82880952Y-97294047D01*
X82785714Y-97103571D01*
X82690476Y-96722619D01*
X82690476Y-96436904D01*
X82785714Y-96055952D01*
X82880952Y-95865476D01*
X83071428Y-95675000D01*
X83357142Y-95579761D01*
X83547619Y-95579761D01*
X83833333Y-95675000D01*
X83928571Y-95770238D01*
X85071428Y-97579761D02*
X84880952Y-97484523D01*
X84785714Y-97389285D01*
X84690476Y-97198809D01*
X84690476Y-96627380D01*
X84785714Y-96436904D01*
X84880952Y-96341666D01*
X85071428Y-96246428D01*
X85357142Y-96246428D01*
X85547619Y-96341666D01*
X85642857Y-96436904D01*
X85738095Y-96627380D01*
X85738095Y-97198809D01*
X85642857Y-97389285D01*
X85547619Y-97484523D01*
X85357142Y-97579761D01*
X85071428Y-97579761D01*
X86595238Y-96246428D02*
X86595238Y-98246428D01*
X86595238Y-96341666D02*
X86785714Y-96246428D01*
X87166666Y-96246428D01*
X87357142Y-96341666D01*
X87452380Y-96436904D01*
X87547619Y-96627380D01*
X87547619Y-97198809D01*
X87452380Y-97389285D01*
X87357142Y-97484523D01*
X87166666Y-97579761D01*
X86785714Y-97579761D01*
X86595238Y-97484523D01*
X88404761Y-96246428D02*
X88404761Y-98246428D01*
X88404761Y-96341666D02*
X88595238Y-96246428D01*
X88976190Y-96246428D01*
X89166666Y-96341666D01*
X89261904Y-96436904D01*
X89357142Y-96627380D01*
X89357142Y-97198809D01*
X89261904Y-97389285D01*
X89166666Y-97484523D01*
X88976190Y-97579761D01*
X88595238Y-97579761D01*
X88404761Y-97484523D01*
X90976190Y-97484523D02*
X90785714Y-97579761D01*
X90404761Y-97579761D01*
X90214285Y-97484523D01*
X90119047Y-97294047D01*
X90119047Y-96532142D01*
X90214285Y-96341666D01*
X90404761Y-96246428D01*
X90785714Y-96246428D01*
X90976190Y-96341666D01*
X91071428Y-96532142D01*
X91071428Y-96722619D01*
X90119047Y-96913095D01*
X91928571Y-97579761D02*
X91928571Y-96246428D01*
X91928571Y-96627380D02*
X92023809Y-96436904D01*
X92119047Y-96341666D01*
X92309523Y-96246428D01*
X92500000Y-96246428D01*
X56357142Y-94134523D02*
X56642857Y-94229761D01*
X57119047Y-94229761D01*
X57309523Y-94134523D01*
X57404761Y-94039285D01*
X57500000Y-93848809D01*
X57500000Y-93658333D01*
X57404761Y-93467857D01*
X57309523Y-93372619D01*
X57119047Y-93277380D01*
X56738095Y-93182142D01*
X56547619Y-93086904D01*
X56452380Y-92991666D01*
X56357142Y-92801190D01*
X56357142Y-92610714D01*
X56452380Y-92420238D01*
X56547619Y-92325000D01*
X56738095Y-92229761D01*
X57214285Y-92229761D01*
X57500000Y-92325000D01*
X58357142Y-94229761D02*
X58357142Y-92896428D01*
X58357142Y-92229761D02*
X58261904Y-92325000D01*
X58357142Y-92420238D01*
X58452380Y-92325000D01*
X58357142Y-92229761D01*
X58357142Y-92420238D01*
X59595238Y-94229761D02*
X59404761Y-94134523D01*
X59309523Y-93944047D01*
X59309523Y-92229761D01*
X60357142Y-94229761D02*
X60357142Y-92229761D01*
X60547619Y-93467857D02*
X61119047Y-94229761D01*
X61119047Y-92896428D02*
X60357142Y-93658333D01*
X63309523Y-92896428D02*
X63690476Y-94229761D01*
X64071428Y-93277380D01*
X64452380Y-94229761D01*
X64833333Y-92896428D01*
X65595238Y-94229761D02*
X65595238Y-92896428D01*
X65595238Y-92229761D02*
X65500000Y-92325000D01*
X65595238Y-92420238D01*
X65690476Y-92325000D01*
X65595238Y-92229761D01*
X65595238Y-92420238D01*
X66261904Y-92896428D02*
X67023809Y-92896428D01*
X66547619Y-92229761D02*
X66547619Y-93944047D01*
X66642857Y-94134523D01*
X66833333Y-94229761D01*
X67023809Y-94229761D01*
X67690476Y-94229761D02*
X67690476Y-92229761D01*
X68547619Y-94229761D02*
X68547619Y-93182142D01*
X68452380Y-92991666D01*
X68261904Y-92896428D01*
X67976190Y-92896428D01*
X67785714Y-92991666D01*
X67690476Y-93086904D01*
X58928571Y-97389285D02*
X58833333Y-97484523D01*
X58547619Y-97579761D01*
X58357142Y-97579761D01*
X58071428Y-97484523D01*
X57880952Y-97294047D01*
X57785714Y-97103571D01*
X57690476Y-96722619D01*
X57690476Y-96436904D01*
X57785714Y-96055952D01*
X57880952Y-95865476D01*
X58071428Y-95675000D01*
X58357142Y-95579761D01*
X58547619Y-95579761D01*
X58833333Y-95675000D01*
X58928571Y-95770238D01*
X60071428Y-97579761D02*
X59880952Y-97484523D01*
X59785714Y-97389285D01*
X59690476Y-97198809D01*
X59690476Y-96627380D01*
X59785714Y-96436904D01*
X59880952Y-96341666D01*
X60071428Y-96246428D01*
X60357142Y-96246428D01*
X60547619Y-96341666D01*
X60642857Y-96436904D01*
X60738095Y-96627380D01*
X60738095Y-97198809D01*
X60642857Y-97389285D01*
X60547619Y-97484523D01*
X60357142Y-97579761D01*
X60071428Y-97579761D01*
X61595238Y-96246428D02*
X61595238Y-98246428D01*
X61595238Y-96341666D02*
X61785714Y-96246428D01*
X62166666Y-96246428D01*
X62357142Y-96341666D01*
X62452380Y-96436904D01*
X62547619Y-96627380D01*
X62547619Y-97198809D01*
X62452380Y-97389285D01*
X62357142Y-97484523D01*
X62166666Y-97579761D01*
X61785714Y-97579761D01*
X61595238Y-97484523D01*
X63404761Y-96246428D02*
X63404761Y-98246428D01*
X63404761Y-96341666D02*
X63595238Y-96246428D01*
X63976190Y-96246428D01*
X64166666Y-96341666D01*
X64261904Y-96436904D01*
X64357142Y-96627380D01*
X64357142Y-97198809D01*
X64261904Y-97389285D01*
X64166666Y-97484523D01*
X63976190Y-97579761D01*
X63595238Y-97579761D01*
X63404761Y-97484523D01*
X65976190Y-97484523D02*
X65785714Y-97579761D01*
X65404761Y-97579761D01*
X65214285Y-97484523D01*
X65119047Y-97294047D01*
X65119047Y-96532142D01*
X65214285Y-96341666D01*
X65404761Y-96246428D01*
X65785714Y-96246428D01*
X65976190Y-96341666D01*
X66071428Y-96532142D01*
X66071428Y-96722619D01*
X65119047Y-96913095D01*
X66928571Y-97579761D02*
X66928571Y-96246428D01*
X66928571Y-96627380D02*
X67023809Y-96436904D01*
X67119047Y-96341666D01*
X67309523Y-96246428D01*
X67500000Y-96246428D01*
%LPC*%
D11*
X74391904Y-64952380D02*
X73820476Y-64952380D01*
X74106190Y-64952380D02*
X74106190Y-63952380D01*
X74010952Y-64095238D01*
X73915714Y-64190476D01*
X73820476Y-64238095D01*
X74820476Y-64857142D02*
X74868095Y-64904761D01*
X74820476Y-64952380D01*
X74772857Y-64904761D01*
X74820476Y-64857142D01*
X74820476Y-64952380D01*
X75487142Y-63952380D02*
X75582380Y-63952380D01*
X75677619Y-64000000D01*
X75725238Y-64047619D01*
X75772857Y-64142857D01*
X75820476Y-64333333D01*
X75820476Y-64571428D01*
X75772857Y-64761904D01*
X75725238Y-64857142D01*
X75677619Y-64904761D01*
X75582380Y-64952380D01*
X75487142Y-64952380D01*
X75391904Y-64904761D01*
X75344285Y-64857142D01*
X75296666Y-64761904D01*
X75249047Y-64571428D01*
X75249047Y-64333333D01*
X75296666Y-64142857D01*
X75344285Y-64047619D01*
X75391904Y-64000000D01*
X75487142Y-63952380D01*
X76153809Y-64952380D02*
X76677619Y-64285714D01*
X76153809Y-64285714D02*
X76677619Y-64952380D01*
X77249047Y-63952380D02*
X77344285Y-63952380D01*
X77439523Y-64000000D01*
X77487142Y-64047619D01*
X77534761Y-64142857D01*
X77582380Y-64333333D01*
X77582380Y-64571428D01*
X77534761Y-64761904D01*
X77487142Y-64857142D01*
X77439523Y-64904761D01*
X77344285Y-64952380D01*
X77249047Y-64952380D01*
X77153809Y-64904761D01*
X77106190Y-64857142D01*
X77058571Y-64761904D01*
X77010952Y-64571428D01*
X77010952Y-64333333D01*
X77058571Y-64142857D01*
X77106190Y-64047619D01*
X77153809Y-64000000D01*
X77249047Y-63952380D01*
X78010952Y-64857142D02*
X78058571Y-64904761D01*
X78010952Y-64952380D01*
X77963333Y-64904761D01*
X78010952Y-64857142D01*
X78010952Y-64952380D01*
X78439523Y-64047619D02*
X78487142Y-64000000D01*
X78582380Y-63952380D01*
X78820476Y-63952380D01*
X78915714Y-64000000D01*
X78963333Y-64047619D01*
X79010952Y-64142857D01*
X79010952Y-64238095D01*
X78963333Y-64380952D01*
X78391904Y-64952380D01*
X79010952Y-64952380D01*
X79630000Y-63952380D02*
X79725238Y-63952380D01*
X79820476Y-64000000D01*
X79868095Y-64047619D01*
X79915714Y-64142857D01*
X79963333Y-64333333D01*
X79963333Y-64571428D01*
X79915714Y-64761904D01*
X79868095Y-64857142D01*
X79820476Y-64904761D01*
X79725238Y-64952380D01*
X79630000Y-64952380D01*
X79534761Y-64904761D01*
X79487142Y-64857142D01*
X79439523Y-64761904D01*
X79391904Y-64571428D01*
X79391904Y-64333333D01*
X79439523Y-64142857D01*
X79487142Y-64047619D01*
X79534761Y-64000000D01*
X79630000Y-63952380D01*
X81630000Y-64952380D02*
X81153809Y-64952380D01*
X81153809Y-63952380D01*
X82106190Y-64952380D02*
X82010952Y-64904761D01*
X81963333Y-64857142D01*
X81915714Y-64761904D01*
X81915714Y-64476190D01*
X81963333Y-64380952D01*
X82010952Y-64333333D01*
X82106190Y-64285714D01*
X82249047Y-64285714D01*
X82344285Y-64333333D01*
X82391904Y-64380952D01*
X82439523Y-64476190D01*
X82439523Y-64761904D01*
X82391904Y-64857142D01*
X82344285Y-64904761D01*
X82249047Y-64952380D01*
X82106190Y-64952380D01*
X82868095Y-64952380D02*
X82868095Y-64285714D01*
X82868095Y-64476190D02*
X82915714Y-64380952D01*
X82963333Y-64333333D01*
X83058571Y-64285714D01*
X83153809Y-64285714D01*
X83868095Y-64904761D02*
X83772857Y-64952380D01*
X83582380Y-64952380D01*
X83487142Y-64904761D01*
X83439523Y-64809523D01*
X83439523Y-64428571D01*
X83487142Y-64333333D01*
X83582380Y-64285714D01*
X83772857Y-64285714D01*
X83868095Y-64333333D01*
X83915714Y-64428571D01*
X83915714Y-64523809D01*
X83439523Y-64619047D01*
X84344285Y-64952380D02*
X84344285Y-64285714D01*
X84344285Y-64380952D02*
X84391904Y-64333333D01*
X84487142Y-64285714D01*
X84630000Y-64285714D01*
X84725238Y-64333333D01*
X84772857Y-64428571D01*
X84772857Y-64952380D01*
X84772857Y-64428571D02*
X84820476Y-64333333D01*
X84915714Y-64285714D01*
X85058571Y-64285714D01*
X85153809Y-64333333D01*
X85201428Y-64428571D01*
X85201428Y-64952380D01*
X86439523Y-64952380D02*
X86439523Y-64285714D01*
X86439523Y-63952380D02*
X86391904Y-64000000D01*
X86439523Y-64047619D01*
X86487142Y-64000000D01*
X86439523Y-63952380D01*
X86439523Y-64047619D01*
X86915714Y-64285714D02*
X86915714Y-65285714D01*
X86915714Y-64333333D02*
X87010952Y-64285714D01*
X87201428Y-64285714D01*
X87296666Y-64333333D01*
X87344285Y-64380952D01*
X87391904Y-64476190D01*
X87391904Y-64761904D01*
X87344285Y-64857142D01*
X87296666Y-64904761D01*
X87201428Y-64952380D01*
X87010952Y-64952380D01*
X86915714Y-64904761D01*
X87772857Y-64904761D02*
X87868095Y-64952380D01*
X88058571Y-64952380D01*
X88153809Y-64904761D01*
X88201428Y-64809523D01*
X88201428Y-64761904D01*
X88153809Y-64666666D01*
X88058571Y-64619047D01*
X87915714Y-64619047D01*
X87820476Y-64571428D01*
X87772857Y-64476190D01*
X87772857Y-64428571D01*
X87820476Y-64333333D01*
X87915714Y-64285714D01*
X88058571Y-64285714D01*
X88153809Y-64333333D01*
X89058571Y-64285714D02*
X89058571Y-64952380D01*
X88630000Y-64285714D02*
X88630000Y-64809523D01*
X88677619Y-64904761D01*
X88772857Y-64952380D01*
X88915714Y-64952380D01*
X89010952Y-64904761D01*
X89058571Y-64857142D01*
X89534761Y-64952380D02*
X89534761Y-64285714D01*
X89534761Y-64380952D02*
X89582380Y-64333333D01*
X89677619Y-64285714D01*
X89820476Y-64285714D01*
X89915714Y-64333333D01*
X89963333Y-64428571D01*
X89963333Y-64952380D01*
X89963333Y-64428571D02*
X90010952Y-64333333D01*
X90106190Y-64285714D01*
X90249047Y-64285714D01*
X90344285Y-64333333D01*
X90391904Y-64428571D01*
X90391904Y-64952380D01*
D12*
X73924107Y-61561904D02*
X74000297Y-61561904D01*
X74076488Y-61600000D01*
X74114583Y-61638095D01*
X74152678Y-61714285D01*
X74190773Y-61866666D01*
X74190773Y-62057142D01*
X74152678Y-62209523D01*
X74114583Y-62285714D01*
X74076488Y-62323809D01*
X74000297Y-62361904D01*
X73924107Y-62361904D01*
X73847916Y-62323809D01*
X73809821Y-62285714D01*
X73771726Y-62209523D01*
X73733630Y-62057142D01*
X73733630Y-61866666D01*
X73771726Y-61714285D01*
X73809821Y-61638095D01*
X73847916Y-61600000D01*
X73924107Y-61561904D01*
X74533630Y-62285714D02*
X74571726Y-62323809D01*
X74533630Y-62361904D01*
X74495535Y-62323809D01*
X74533630Y-62285714D01*
X74533630Y-62361904D01*
X75028869Y-61904761D02*
X74952678Y-61866666D01*
X74914583Y-61828571D01*
X74876488Y-61752380D01*
X74876488Y-61714285D01*
X74914583Y-61638095D01*
X74952678Y-61600000D01*
X75028869Y-61561904D01*
X75181250Y-61561904D01*
X75257440Y-61600000D01*
X75295535Y-61638095D01*
X75333630Y-61714285D01*
X75333630Y-61752380D01*
X75295535Y-61828571D01*
X75257440Y-61866666D01*
X75181250Y-61904761D01*
X75028869Y-61904761D01*
X74952678Y-61942857D01*
X74914583Y-61980952D01*
X74876488Y-62057142D01*
X74876488Y-62209523D01*
X74914583Y-62285714D01*
X74952678Y-62323809D01*
X75028869Y-62361904D01*
X75181250Y-62361904D01*
X75257440Y-62323809D01*
X75295535Y-62285714D01*
X75333630Y-62209523D01*
X75333630Y-62057142D01*
X75295535Y-61980952D01*
X75257440Y-61942857D01*
X75181250Y-61904761D01*
X75600297Y-62361904D02*
X76019345Y-61828571D01*
X75600297Y-61828571D02*
X76019345Y-62361904D01*
X76476488Y-61561904D02*
X76552678Y-61561904D01*
X76628869Y-61600000D01*
X76666964Y-61638095D01*
X76705059Y-61714285D01*
X76743154Y-61866666D01*
X76743154Y-62057142D01*
X76705059Y-62209523D01*
X76666964Y-62285714D01*
X76628869Y-62323809D01*
X76552678Y-62361904D01*
X76476488Y-62361904D01*
X76400297Y-62323809D01*
X76362202Y-62285714D01*
X76324107Y-62209523D01*
X76286011Y-62057142D01*
X76286011Y-61866666D01*
X76324107Y-61714285D01*
X76362202Y-61638095D01*
X76400297Y-61600000D01*
X76476488Y-61561904D01*
X77086011Y-62285714D02*
X77124107Y-62323809D01*
X77086011Y-62361904D01*
X77047916Y-62323809D01*
X77086011Y-62285714D01*
X77086011Y-62361904D01*
X77886011Y-62361904D02*
X77428869Y-62361904D01*
X77657440Y-62361904D02*
X77657440Y-61561904D01*
X77581250Y-61676190D01*
X77505059Y-61752380D01*
X77428869Y-61790476D01*
X78190773Y-61638095D02*
X78228869Y-61600000D01*
X78305059Y-61561904D01*
X78495535Y-61561904D01*
X78571726Y-61600000D01*
X78609821Y-61638095D01*
X78647916Y-61714285D01*
X78647916Y-61790476D01*
X78609821Y-61904761D01*
X78152678Y-62361904D01*
X78647916Y-62361904D01*
X79371726Y-61561904D02*
X78990773Y-61561904D01*
X78952678Y-61942857D01*
X78990773Y-61904761D01*
X79066964Y-61866666D01*
X79257440Y-61866666D01*
X79333630Y-61904761D01*
X79371726Y-61942857D01*
X79409821Y-62019047D01*
X79409821Y-62209523D01*
X79371726Y-62285714D01*
X79333630Y-62323809D01*
X79257440Y-62361904D01*
X79066964Y-62361904D01*
X78990773Y-62323809D01*
X78952678Y-62285714D01*
X80743154Y-62361904D02*
X80362202Y-62361904D01*
X80362202Y-61561904D01*
X81124107Y-62361904D02*
X81047916Y-62323809D01*
X81009821Y-62285714D01*
X80971726Y-62209523D01*
X80971726Y-61980952D01*
X81009821Y-61904761D01*
X81047916Y-61866666D01*
X81124107Y-61828571D01*
X81238392Y-61828571D01*
X81314583Y-61866666D01*
X81352678Y-61904761D01*
X81390773Y-61980952D01*
X81390773Y-62209523D01*
X81352678Y-62285714D01*
X81314583Y-62323809D01*
X81238392Y-62361904D01*
X81124107Y-62361904D01*
X81733630Y-62361904D02*
X81733630Y-61828571D01*
X81733630Y-61980952D02*
X81771726Y-61904761D01*
X81809821Y-61866666D01*
X81886011Y-61828571D01*
X81962202Y-61828571D01*
X82533630Y-62323809D02*
X82457440Y-62361904D01*
X82305059Y-62361904D01*
X82228869Y-62323809D01*
X82190773Y-62247619D01*
X82190773Y-61942857D01*
X82228869Y-61866666D01*
X82305059Y-61828571D01*
X82457440Y-61828571D01*
X82533630Y-61866666D01*
X82571726Y-61942857D01*
X82571726Y-62019047D01*
X82190773Y-62095238D01*
X82914583Y-62361904D02*
X82914583Y-61828571D01*
X82914583Y-61904761D02*
X82952678Y-61866666D01*
X83028869Y-61828571D01*
X83143154Y-61828571D01*
X83219345Y-61866666D01*
X83257440Y-61942857D01*
X83257440Y-62361904D01*
X83257440Y-61942857D02*
X83295535Y-61866666D01*
X83371726Y-61828571D01*
X83486011Y-61828571D01*
X83562202Y-61866666D01*
X83600297Y-61942857D01*
X83600297Y-62361904D01*
X84590773Y-62361904D02*
X84590773Y-61828571D01*
X84590773Y-61561904D02*
X84552678Y-61600000D01*
X84590773Y-61638095D01*
X84628869Y-61600000D01*
X84590773Y-61561904D01*
X84590773Y-61638095D01*
X84971726Y-61828571D02*
X84971726Y-62628571D01*
X84971726Y-61866666D02*
X85047916Y-61828571D01*
X85200297Y-61828571D01*
X85276488Y-61866666D01*
X85314583Y-61904761D01*
X85352678Y-61980952D01*
X85352678Y-62209523D01*
X85314583Y-62285714D01*
X85276488Y-62323809D01*
X85200297Y-62361904D01*
X85047916Y-62361904D01*
X84971726Y-62323809D01*
X85657440Y-62323809D02*
X85733630Y-62361904D01*
X85886011Y-62361904D01*
X85962202Y-62323809D01*
X86000297Y-62247619D01*
X86000297Y-62209523D01*
X85962202Y-62133333D01*
X85886011Y-62095238D01*
X85771726Y-62095238D01*
X85695535Y-62057142D01*
X85657440Y-61980952D01*
X85657440Y-61942857D01*
X85695535Y-61866666D01*
X85771726Y-61828571D01*
X85886011Y-61828571D01*
X85962202Y-61866666D01*
X86686011Y-61828571D02*
X86686011Y-62361904D01*
X86343154Y-61828571D02*
X86343154Y-62247619D01*
X86381250Y-62323809D01*
X86457440Y-62361904D01*
X86571726Y-62361904D01*
X86647916Y-62323809D01*
X86686011Y-62285714D01*
X87066964Y-62361904D02*
X87066964Y-61828571D01*
X87066964Y-61904761D02*
X87105059Y-61866666D01*
X87181250Y-61828571D01*
X87295535Y-61828571D01*
X87371726Y-61866666D01*
X87409821Y-61942857D01*
X87409821Y-62361904D01*
X87409821Y-61942857D02*
X87447916Y-61866666D01*
X87524107Y-61828571D01*
X87638392Y-61828571D01*
X87714583Y-61866666D01*
X87752678Y-61942857D01*
X87752678Y-62361904D01*
D13*
X74805357Y-68178571D02*
X73948214Y-68178571D01*
X74376785Y-68178571D02*
X74376785Y-66678571D01*
X74233928Y-66892857D01*
X74091071Y-67035714D01*
X73948214Y-67107142D01*
X75448214Y-68035714D02*
X75519642Y-68107142D01*
X75448214Y-68178571D01*
X75376785Y-68107142D01*
X75448214Y-68035714D01*
X75448214Y-68178571D01*
X76876785Y-66678571D02*
X76162500Y-66678571D01*
X76091071Y-67392857D01*
X76162500Y-67321428D01*
X76305357Y-67250000D01*
X76662500Y-67250000D01*
X76805357Y-67321428D01*
X76876785Y-67392857D01*
X76948214Y-67535714D01*
X76948214Y-67892857D01*
X76876785Y-68035714D01*
X76805357Y-68107142D01*
X76662500Y-68178571D01*
X76305357Y-68178571D01*
X76162500Y-68107142D01*
X76091071Y-68035714D01*
X77448214Y-68178571D02*
X78233928Y-67178571D01*
X77448214Y-67178571D02*
X78233928Y-68178571D01*
X79091071Y-66678571D02*
X79233928Y-66678571D01*
X79376785Y-66750000D01*
X79448214Y-66821428D01*
X79519642Y-66964285D01*
X79591071Y-67250000D01*
X79591071Y-67607142D01*
X79519642Y-67892857D01*
X79448214Y-68035714D01*
X79376785Y-68107142D01*
X79233928Y-68178571D01*
X79091071Y-68178571D01*
X78948214Y-68107142D01*
X78876785Y-68035714D01*
X78805357Y-67892857D01*
X78733928Y-67607142D01*
X78733928Y-67250000D01*
X78805357Y-66964285D01*
X78876785Y-66821428D01*
X78948214Y-66750000D01*
X79091071Y-66678571D01*
X80233928Y-68035714D02*
X80305357Y-68107142D01*
X80233928Y-68178571D01*
X80162500Y-68107142D01*
X80233928Y-68035714D01*
X80233928Y-68178571D01*
X80876785Y-66821428D02*
X80948214Y-66750000D01*
X81091071Y-66678571D01*
X81448214Y-66678571D01*
X81591071Y-66750000D01*
X81662500Y-66821428D01*
X81733928Y-66964285D01*
X81733928Y-67107142D01*
X81662500Y-67321428D01*
X80805357Y-68178571D01*
X81733928Y-68178571D01*
X83091071Y-66678571D02*
X82376785Y-66678571D01*
X82305357Y-67392857D01*
X82376785Y-67321428D01*
X82519642Y-67250000D01*
X82876785Y-67250000D01*
X83019642Y-67321428D01*
X83091071Y-67392857D01*
X83162500Y-67535714D01*
X83162500Y-67892857D01*
X83091071Y-68035714D01*
X83019642Y-68107142D01*
X82876785Y-68178571D01*
X82519642Y-68178571D01*
X82376785Y-68107142D01*
X82305357Y-68035714D01*
X85662500Y-68178571D02*
X84948214Y-68178571D01*
X84948214Y-66678571D01*
X86376785Y-68178571D02*
X86233928Y-68107142D01*
X86162500Y-68035714D01*
X86091071Y-67892857D01*
X86091071Y-67464285D01*
X86162500Y-67321428D01*
X86233928Y-67250000D01*
X86376785Y-67178571D01*
X86591071Y-67178571D01*
X86733928Y-67250000D01*
X86805357Y-67321428D01*
X86876785Y-67464285D01*
X86876785Y-67892857D01*
X86805357Y-68035714D01*
X86733928Y-68107142D01*
X86591071Y-68178571D01*
X86376785Y-68178571D01*
X87519642Y-68178571D02*
X87519642Y-67178571D01*
X87519642Y-67464285D02*
X87591071Y-67321428D01*
X87662500Y-67250000D01*
X87805357Y-67178571D01*
X87948214Y-67178571D01*
X89019642Y-68107142D02*
X88876785Y-68178571D01*
X88591071Y-68178571D01*
X88448214Y-68107142D01*
X88376785Y-67964285D01*
X88376785Y-67392857D01*
X88448214Y-67250000D01*
X88591071Y-67178571D01*
X88876785Y-67178571D01*
X89019642Y-67250000D01*
X89091071Y-67392857D01*
X89091071Y-67535714D01*
X88376785Y-67678571D01*
X89733928Y-68178571D02*
X89733928Y-67178571D01*
X89733928Y-67321428D02*
X89805357Y-67250000D01*
X89948214Y-67178571D01*
X90162500Y-67178571D01*
X90305357Y-67250000D01*
X90376785Y-67392857D01*
X90376785Y-68178571D01*
X90376785Y-67392857D02*
X90448214Y-67250000D01*
X90591071Y-67178571D01*
X90805357Y-67178571D01*
X90948214Y-67250000D01*
X91019642Y-67392857D01*
X91019642Y-68178571D01*
X92876785Y-68178571D02*
X92876785Y-67178571D01*
X92876785Y-66678571D02*
X92805357Y-66750000D01*
X92876785Y-66821428D01*
X92948214Y-66750000D01*
X92876785Y-66678571D01*
X92876785Y-66821428D01*
X93591071Y-67178571D02*
X93591071Y-68678571D01*
X93591071Y-67250000D02*
X93733928Y-67178571D01*
X94019642Y-67178571D01*
X94162500Y-67250000D01*
X94233928Y-67321428D01*
X94305357Y-67464285D01*
X94305357Y-67892857D01*
X94233928Y-68035714D01*
X94162500Y-68107142D01*
X94019642Y-68178571D01*
X93733928Y-68178571D01*
X93591071Y-68107142D01*
X94876785Y-68107142D02*
X95019642Y-68178571D01*
X95305357Y-68178571D01*
X95448214Y-68107142D01*
X95519642Y-67964285D01*
X95519642Y-67892857D01*
X95448214Y-67750000D01*
X95305357Y-67678571D01*
X95091071Y-67678571D01*
X94948214Y-67607142D01*
X94876785Y-67464285D01*
X94876785Y-67392857D01*
X94948214Y-67250000D01*
X95091071Y-67178571D01*
X95305357Y-67178571D01*
X95448214Y-67250000D01*
X96805357Y-67178571D02*
X96805357Y-68178571D01*
X96162500Y-67178571D02*
X96162500Y-67964285D01*
X96233928Y-68107142D01*
X96376785Y-68178571D01*
X96591071Y-68178571D01*
X96733928Y-68107142D01*
X96805357Y-68035714D01*
X97519642Y-68178571D02*
X97519642Y-67178571D01*
X97519642Y-67321428D02*
X97591071Y-67250000D01*
X97733928Y-67178571D01*
X97948214Y-67178571D01*
X98091071Y-67250000D01*
X98162500Y-67392857D01*
X98162500Y-68178571D01*
X98162500Y-67392857D02*
X98233928Y-67250000D01*
X98376785Y-67178571D01*
X98591071Y-67178571D01*
X98733928Y-67250000D01*
X98805357Y-67392857D01*
X98805357Y-68178571D01*
D11*
X74391904Y-54952380D02*
X73820476Y-54952380D01*
X74106190Y-54952380D02*
X74106190Y-53952380D01*
X74010952Y-54095238D01*
X73915714Y-54190476D01*
X73820476Y-54238095D01*
X74820476Y-54857142D02*
X74868095Y-54904761D01*
X74820476Y-54952380D01*
X74772857Y-54904761D01*
X74820476Y-54857142D01*
X74820476Y-54952380D01*
X75487142Y-53952380D02*
X75582380Y-53952380D01*
X75677619Y-54000000D01*
X75725238Y-54047619D01*
X75772857Y-54142857D01*
X75820476Y-54333333D01*
X75820476Y-54571428D01*
X75772857Y-54761904D01*
X75725238Y-54857142D01*
X75677619Y-54904761D01*
X75582380Y-54952380D01*
X75487142Y-54952380D01*
X75391904Y-54904761D01*
X75344285Y-54857142D01*
X75296666Y-54761904D01*
X75249047Y-54571428D01*
X75249047Y-54333333D01*
X75296666Y-54142857D01*
X75344285Y-54047619D01*
X75391904Y-54000000D01*
X75487142Y-53952380D01*
X76153809Y-54952380D02*
X76677619Y-54285714D01*
X76153809Y-54285714D02*
X76677619Y-54952380D01*
X77249047Y-53952380D02*
X77344285Y-53952380D01*
X77439523Y-54000000D01*
X77487142Y-54047619D01*
X77534761Y-54142857D01*
X77582380Y-54333333D01*
X77582380Y-54571428D01*
X77534761Y-54761904D01*
X77487142Y-54857142D01*
X77439523Y-54904761D01*
X77344285Y-54952380D01*
X77249047Y-54952380D01*
X77153809Y-54904761D01*
X77106190Y-54857142D01*
X77058571Y-54761904D01*
X77010952Y-54571428D01*
X77010952Y-54333333D01*
X77058571Y-54142857D01*
X77106190Y-54047619D01*
X77153809Y-54000000D01*
X77249047Y-53952380D01*
X78010952Y-54857142D02*
X78058571Y-54904761D01*
X78010952Y-54952380D01*
X77963333Y-54904761D01*
X78010952Y-54857142D01*
X78010952Y-54952380D01*
X78439523Y-54047619D02*
X78487142Y-54000000D01*
X78582380Y-53952380D01*
X78820476Y-53952380D01*
X78915714Y-54000000D01*
X78963333Y-54047619D01*
X79010952Y-54142857D01*
X79010952Y-54238095D01*
X78963333Y-54380952D01*
X78391904Y-54952380D01*
X79010952Y-54952380D01*
X79630000Y-53952380D02*
X79725238Y-53952380D01*
X79820476Y-54000000D01*
X79868095Y-54047619D01*
X79915714Y-54142857D01*
X79963333Y-54333333D01*
X79963333Y-54571428D01*
X79915714Y-54761904D01*
X79868095Y-54857142D01*
X79820476Y-54904761D01*
X79725238Y-54952380D01*
X79630000Y-54952380D01*
X79534761Y-54904761D01*
X79487142Y-54857142D01*
X79439523Y-54761904D01*
X79391904Y-54571428D01*
X79391904Y-54333333D01*
X79439523Y-54142857D01*
X79487142Y-54047619D01*
X79534761Y-54000000D01*
X79630000Y-53952380D01*
X81630000Y-54952380D02*
X81153809Y-54952380D01*
X81153809Y-53952380D01*
X82106190Y-54952380D02*
X82010952Y-54904761D01*
X81963333Y-54857142D01*
X81915714Y-54761904D01*
X81915714Y-54476190D01*
X81963333Y-54380952D01*
X82010952Y-54333333D01*
X82106190Y-54285714D01*
X82249047Y-54285714D01*
X82344285Y-54333333D01*
X82391904Y-54380952D01*
X82439523Y-54476190D01*
X82439523Y-54761904D01*
X82391904Y-54857142D01*
X82344285Y-54904761D01*
X82249047Y-54952380D01*
X82106190Y-54952380D01*
X82868095Y-54952380D02*
X82868095Y-54285714D01*
X82868095Y-54476190D02*
X82915714Y-54380952D01*
X82963333Y-54333333D01*
X83058571Y-54285714D01*
X83153809Y-54285714D01*
X83868095Y-54904761D02*
X83772857Y-54952380D01*
X83582380Y-54952380D01*
X83487142Y-54904761D01*
X83439523Y-54809523D01*
X83439523Y-54428571D01*
X83487142Y-54333333D01*
X83582380Y-54285714D01*
X83772857Y-54285714D01*
X83868095Y-54333333D01*
X83915714Y-54428571D01*
X83915714Y-54523809D01*
X83439523Y-54619047D01*
X84344285Y-54952380D02*
X84344285Y-54285714D01*
X84344285Y-54380952D02*
X84391904Y-54333333D01*
X84487142Y-54285714D01*
X84630000Y-54285714D01*
X84725238Y-54333333D01*
X84772857Y-54428571D01*
X84772857Y-54952380D01*
X84772857Y-54428571D02*
X84820476Y-54333333D01*
X84915714Y-54285714D01*
X85058571Y-54285714D01*
X85153809Y-54333333D01*
X85201428Y-54428571D01*
X85201428Y-54952380D01*
X86439523Y-54952380D02*
X86439523Y-54285714D01*
X86439523Y-53952380D02*
X86391904Y-54000000D01*
X86439523Y-54047619D01*
X86487142Y-54000000D01*
X86439523Y-53952380D01*
X86439523Y-54047619D01*
X86915714Y-54285714D02*
X86915714Y-55285714D01*
X86915714Y-54333333D02*
X87010952Y-54285714D01*
X87201428Y-54285714D01*
X87296666Y-54333333D01*
X87344285Y-54380952D01*
X87391904Y-54476190D01*
X87391904Y-54761904D01*
X87344285Y-54857142D01*
X87296666Y-54904761D01*
X87201428Y-54952380D01*
X87010952Y-54952380D01*
X86915714Y-54904761D01*
X87772857Y-54904761D02*
X87868095Y-54952380D01*
X88058571Y-54952380D01*
X88153809Y-54904761D01*
X88201428Y-54809523D01*
X88201428Y-54761904D01*
X88153809Y-54666666D01*
X88058571Y-54619047D01*
X87915714Y-54619047D01*
X87820476Y-54571428D01*
X87772857Y-54476190D01*
X87772857Y-54428571D01*
X87820476Y-54333333D01*
X87915714Y-54285714D01*
X88058571Y-54285714D01*
X88153809Y-54333333D01*
X89058571Y-54285714D02*
X89058571Y-54952380D01*
X88630000Y-54285714D02*
X88630000Y-54809523D01*
X88677619Y-54904761D01*
X88772857Y-54952380D01*
X88915714Y-54952380D01*
X89010952Y-54904761D01*
X89058571Y-54857142D01*
X89534761Y-54952380D02*
X89534761Y-54285714D01*
X89534761Y-54380952D02*
X89582380Y-54333333D01*
X89677619Y-54285714D01*
X89820476Y-54285714D01*
X89915714Y-54333333D01*
X89963333Y-54428571D01*
X89963333Y-54952380D01*
X89963333Y-54428571D02*
X90010952Y-54333333D01*
X90106190Y-54285714D01*
X90249047Y-54285714D01*
X90344285Y-54333333D01*
X90391904Y-54428571D01*
X90391904Y-54952380D01*
D13*
X74805357Y-58178571D02*
X73948214Y-58178571D01*
X74376785Y-58178571D02*
X74376785Y-56678571D01*
X74233928Y-56892857D01*
X74091071Y-57035714D01*
X73948214Y-57107142D01*
X75448214Y-58035714D02*
X75519642Y-58107142D01*
X75448214Y-58178571D01*
X75376785Y-58107142D01*
X75448214Y-58035714D01*
X75448214Y-58178571D01*
X76876785Y-56678571D02*
X76162500Y-56678571D01*
X76091071Y-57392857D01*
X76162500Y-57321428D01*
X76305357Y-57250000D01*
X76662500Y-57250000D01*
X76805357Y-57321428D01*
X76876785Y-57392857D01*
X76948214Y-57535714D01*
X76948214Y-57892857D01*
X76876785Y-58035714D01*
X76805357Y-58107142D01*
X76662500Y-58178571D01*
X76305357Y-58178571D01*
X76162500Y-58107142D01*
X76091071Y-58035714D01*
X77448214Y-58178571D02*
X78233928Y-57178571D01*
X77448214Y-57178571D02*
X78233928Y-58178571D01*
X79091071Y-56678571D02*
X79233928Y-56678571D01*
X79376785Y-56750000D01*
X79448214Y-56821428D01*
X79519642Y-56964285D01*
X79591071Y-57250000D01*
X79591071Y-57607142D01*
X79519642Y-57892857D01*
X79448214Y-58035714D01*
X79376785Y-58107142D01*
X79233928Y-58178571D01*
X79091071Y-58178571D01*
X78948214Y-58107142D01*
X78876785Y-58035714D01*
X78805357Y-57892857D01*
X78733928Y-57607142D01*
X78733928Y-57250000D01*
X78805357Y-56964285D01*
X78876785Y-56821428D01*
X78948214Y-56750000D01*
X79091071Y-56678571D01*
X80233928Y-58035714D02*
X80305357Y-58107142D01*
X80233928Y-58178571D01*
X80162500Y-58107142D01*
X80233928Y-58035714D01*
X80233928Y-58178571D01*
X80876785Y-56821428D02*
X80948214Y-56750000D01*
X81091071Y-56678571D01*
X81448214Y-56678571D01*
X81591071Y-56750000D01*
X81662500Y-56821428D01*
X81733928Y-56964285D01*
X81733928Y-57107142D01*
X81662500Y-57321428D01*
X80805357Y-58178571D01*
X81733928Y-58178571D01*
X83091071Y-56678571D02*
X82376785Y-56678571D01*
X82305357Y-57392857D01*
X82376785Y-57321428D01*
X82519642Y-57250000D01*
X82876785Y-57250000D01*
X83019642Y-57321428D01*
X83091071Y-57392857D01*
X83162500Y-57535714D01*
X83162500Y-57892857D01*
X83091071Y-58035714D01*
X83019642Y-58107142D01*
X82876785Y-58178571D01*
X82519642Y-58178571D01*
X82376785Y-58107142D01*
X82305357Y-58035714D01*
X85662500Y-58178571D02*
X84948214Y-58178571D01*
X84948214Y-56678571D01*
X86376785Y-58178571D02*
X86233928Y-58107142D01*
X86162500Y-58035714D01*
X86091071Y-57892857D01*
X86091071Y-57464285D01*
X86162500Y-57321428D01*
X86233928Y-57250000D01*
X86376785Y-57178571D01*
X86591071Y-57178571D01*
X86733928Y-57250000D01*
X86805357Y-57321428D01*
X86876785Y-57464285D01*
X86876785Y-57892857D01*
X86805357Y-58035714D01*
X86733928Y-58107142D01*
X86591071Y-58178571D01*
X86376785Y-58178571D01*
X87519642Y-58178571D02*
X87519642Y-57178571D01*
X87519642Y-57464285D02*
X87591071Y-57321428D01*
X87662500Y-57250000D01*
X87805357Y-57178571D01*
X87948214Y-57178571D01*
X89019642Y-58107142D02*
X88876785Y-58178571D01*
X88591071Y-58178571D01*
X88448214Y-58107142D01*
X88376785Y-57964285D01*
X88376785Y-57392857D01*
X88448214Y-57250000D01*
X88591071Y-57178571D01*
X88876785Y-57178571D01*
X89019642Y-57250000D01*
X89091071Y-57392857D01*
X89091071Y-57535714D01*
X88376785Y-57678571D01*
X89733928Y-58178571D02*
X89733928Y-57178571D01*
X89733928Y-57321428D02*
X89805357Y-57250000D01*
X89948214Y-57178571D01*
X90162500Y-57178571D01*
X90305357Y-57250000D01*
X90376785Y-57392857D01*
X90376785Y-58178571D01*
X90376785Y-57392857D02*
X90448214Y-57250000D01*
X90591071Y-57178571D01*
X90805357Y-57178571D01*
X90948214Y-57250000D01*
X91019642Y-57392857D01*
X91019642Y-58178571D01*
X92876785Y-58178571D02*
X92876785Y-57178571D01*
X92876785Y-56678571D02*
X92805357Y-56750000D01*
X92876785Y-56821428D01*
X92948214Y-56750000D01*
X92876785Y-56678571D01*
X92876785Y-56821428D01*
X93591071Y-57178571D02*
X93591071Y-58678571D01*
X93591071Y-57250000D02*
X93733928Y-57178571D01*
X94019642Y-57178571D01*
X94162500Y-57250000D01*
X94233928Y-57321428D01*
X94305357Y-57464285D01*
X94305357Y-57892857D01*
X94233928Y-58035714D01*
X94162500Y-58107142D01*
X94019642Y-58178571D01*
X93733928Y-58178571D01*
X93591071Y-58107142D01*
X94876785Y-58107142D02*
X95019642Y-58178571D01*
X95305357Y-58178571D01*
X95448214Y-58107142D01*
X95519642Y-57964285D01*
X95519642Y-57892857D01*
X95448214Y-57750000D01*
X95305357Y-57678571D01*
X95091071Y-57678571D01*
X94948214Y-57607142D01*
X94876785Y-57464285D01*
X94876785Y-57392857D01*
X94948214Y-57250000D01*
X95091071Y-57178571D01*
X95305357Y-57178571D01*
X95448214Y-57250000D01*
X96805357Y-57178571D02*
X96805357Y-58178571D01*
X96162500Y-57178571D02*
X96162500Y-57964285D01*
X96233928Y-58107142D01*
X96376785Y-58178571D01*
X96591071Y-58178571D01*
X96733928Y-58107142D01*
X96805357Y-58035714D01*
X97519642Y-58178571D02*
X97519642Y-57178571D01*
X97519642Y-57321428D02*
X97591071Y-57250000D01*
X97733928Y-57178571D01*
X97948214Y-57178571D01*
X98091071Y-57250000D01*
X98162500Y-57392857D01*
X98162500Y-58178571D01*
X98162500Y-57392857D02*
X98233928Y-57250000D01*
X98376785Y-57178571D01*
X98591071Y-57178571D01*
X98733928Y-57250000D01*
X98805357Y-57392857D01*
X98805357Y-58178571D01*
D12*
X73924107Y-51561904D02*
X74000297Y-51561904D01*
X74076488Y-51600000D01*
X74114583Y-51638095D01*
X74152678Y-51714285D01*
X74190773Y-51866666D01*
X74190773Y-52057142D01*
X74152678Y-52209523D01*
X74114583Y-52285714D01*
X74076488Y-52323809D01*
X74000297Y-52361904D01*
X73924107Y-52361904D01*
X73847916Y-52323809D01*
X73809821Y-52285714D01*
X73771726Y-52209523D01*
X73733630Y-52057142D01*
X73733630Y-51866666D01*
X73771726Y-51714285D01*
X73809821Y-51638095D01*
X73847916Y-51600000D01*
X73924107Y-51561904D01*
X74533630Y-52285714D02*
X74571726Y-52323809D01*
X74533630Y-52361904D01*
X74495535Y-52323809D01*
X74533630Y-52285714D01*
X74533630Y-52361904D01*
X75028869Y-51904761D02*
X74952678Y-51866666D01*
X74914583Y-51828571D01*
X74876488Y-51752380D01*
X74876488Y-51714285D01*
X74914583Y-51638095D01*
X74952678Y-51600000D01*
X75028869Y-51561904D01*
X75181250Y-51561904D01*
X75257440Y-51600000D01*
X75295535Y-51638095D01*
X75333630Y-51714285D01*
X75333630Y-51752380D01*
X75295535Y-51828571D01*
X75257440Y-51866666D01*
X75181250Y-51904761D01*
X75028869Y-51904761D01*
X74952678Y-51942857D01*
X74914583Y-51980952D01*
X74876488Y-52057142D01*
X74876488Y-52209523D01*
X74914583Y-52285714D01*
X74952678Y-52323809D01*
X75028869Y-52361904D01*
X75181250Y-52361904D01*
X75257440Y-52323809D01*
X75295535Y-52285714D01*
X75333630Y-52209523D01*
X75333630Y-52057142D01*
X75295535Y-51980952D01*
X75257440Y-51942857D01*
X75181250Y-51904761D01*
X75600297Y-52361904D02*
X76019345Y-51828571D01*
X75600297Y-51828571D02*
X76019345Y-52361904D01*
X76476488Y-51561904D02*
X76552678Y-51561904D01*
X76628869Y-51600000D01*
X76666964Y-51638095D01*
X76705059Y-51714285D01*
X76743154Y-51866666D01*
X76743154Y-52057142D01*
X76705059Y-52209523D01*
X76666964Y-52285714D01*
X76628869Y-52323809D01*
X76552678Y-52361904D01*
X76476488Y-52361904D01*
X76400297Y-52323809D01*
X76362202Y-52285714D01*
X76324107Y-52209523D01*
X76286011Y-52057142D01*
X76286011Y-51866666D01*
X76324107Y-51714285D01*
X76362202Y-51638095D01*
X76400297Y-51600000D01*
X76476488Y-51561904D01*
X77086011Y-52285714D02*
X77124107Y-52323809D01*
X77086011Y-52361904D01*
X77047916Y-52323809D01*
X77086011Y-52285714D01*
X77086011Y-52361904D01*
X77886011Y-52361904D02*
X77428869Y-52361904D01*
X77657440Y-52361904D02*
X77657440Y-51561904D01*
X77581250Y-51676190D01*
X77505059Y-51752380D01*
X77428869Y-51790476D01*
X78190773Y-51638095D02*
X78228869Y-51600000D01*
X78305059Y-51561904D01*
X78495535Y-51561904D01*
X78571726Y-51600000D01*
X78609821Y-51638095D01*
X78647916Y-51714285D01*
X78647916Y-51790476D01*
X78609821Y-51904761D01*
X78152678Y-52361904D01*
X78647916Y-52361904D01*
X79371726Y-51561904D02*
X78990773Y-51561904D01*
X78952678Y-51942857D01*
X78990773Y-51904761D01*
X79066964Y-51866666D01*
X79257440Y-51866666D01*
X79333630Y-51904761D01*
X79371726Y-51942857D01*
X79409821Y-52019047D01*
X79409821Y-52209523D01*
X79371726Y-52285714D01*
X79333630Y-52323809D01*
X79257440Y-52361904D01*
X79066964Y-52361904D01*
X78990773Y-52323809D01*
X78952678Y-52285714D01*
X80743154Y-52361904D02*
X80362202Y-52361904D01*
X80362202Y-51561904D01*
X81124107Y-52361904D02*
X81047916Y-52323809D01*
X81009821Y-52285714D01*
X80971726Y-52209523D01*
X80971726Y-51980952D01*
X81009821Y-51904761D01*
X81047916Y-51866666D01*
X81124107Y-51828571D01*
X81238392Y-51828571D01*
X81314583Y-51866666D01*
X81352678Y-51904761D01*
X81390773Y-51980952D01*
X81390773Y-52209523D01*
X81352678Y-52285714D01*
X81314583Y-52323809D01*
X81238392Y-52361904D01*
X81124107Y-52361904D01*
X81733630Y-52361904D02*
X81733630Y-51828571D01*
X81733630Y-51980952D02*
X81771726Y-51904761D01*
X81809821Y-51866666D01*
X81886011Y-51828571D01*
X81962202Y-51828571D01*
X82533630Y-52323809D02*
X82457440Y-52361904D01*
X82305059Y-52361904D01*
X82228869Y-52323809D01*
X82190773Y-52247619D01*
X82190773Y-51942857D01*
X82228869Y-51866666D01*
X82305059Y-51828571D01*
X82457440Y-51828571D01*
X82533630Y-51866666D01*
X82571726Y-51942857D01*
X82571726Y-52019047D01*
X82190773Y-52095238D01*
X82914583Y-52361904D02*
X82914583Y-51828571D01*
X82914583Y-51904761D02*
X82952678Y-51866666D01*
X83028869Y-51828571D01*
X83143154Y-51828571D01*
X83219345Y-51866666D01*
X83257440Y-51942857D01*
X83257440Y-52361904D01*
X83257440Y-51942857D02*
X83295535Y-51866666D01*
X83371726Y-51828571D01*
X83486011Y-51828571D01*
X83562202Y-51866666D01*
X83600297Y-51942857D01*
X83600297Y-52361904D01*
X84590773Y-52361904D02*
X84590773Y-51828571D01*
X84590773Y-51561904D02*
X84552678Y-51600000D01*
X84590773Y-51638095D01*
X84628869Y-51600000D01*
X84590773Y-51561904D01*
X84590773Y-51638095D01*
X84971726Y-51828571D02*
X84971726Y-52628571D01*
X84971726Y-51866666D02*
X85047916Y-51828571D01*
X85200297Y-51828571D01*
X85276488Y-51866666D01*
X85314583Y-51904761D01*
X85352678Y-51980952D01*
X85352678Y-52209523D01*
X85314583Y-52285714D01*
X85276488Y-52323809D01*
X85200297Y-52361904D01*
X85047916Y-52361904D01*
X84971726Y-52323809D01*
X85657440Y-52323809D02*
X85733630Y-52361904D01*
X85886011Y-52361904D01*
X85962202Y-52323809D01*
X86000297Y-52247619D01*
X86000297Y-52209523D01*
X85962202Y-52133333D01*
X85886011Y-52095238D01*
X85771726Y-52095238D01*
X85695535Y-52057142D01*
X85657440Y-51980952D01*
X85657440Y-51942857D01*
X85695535Y-51866666D01*
X85771726Y-51828571D01*
X85886011Y-51828571D01*
X85962202Y-51866666D01*
X86686011Y-51828571D02*
X86686011Y-52361904D01*
X86343154Y-51828571D02*
X86343154Y-52247619D01*
X86381250Y-52323809D01*
X86457440Y-52361904D01*
X86571726Y-52361904D01*
X86647916Y-52323809D01*
X86686011Y-52285714D01*
X87066964Y-52361904D02*
X87066964Y-51828571D01*
X87066964Y-51904761D02*
X87105059Y-51866666D01*
X87181250Y-51828571D01*
X87295535Y-51828571D01*
X87371726Y-51866666D01*
X87409821Y-51942857D01*
X87409821Y-52361904D01*
X87409821Y-51942857D02*
X87447916Y-51866666D01*
X87524107Y-51828571D01*
X87638392Y-51828571D01*
X87714583Y-51866666D01*
X87752678Y-51942857D01*
X87752678Y-52361904D01*
D14*
G36*
X100000000Y-89500000D02*
G01*
X50000000Y-89500000D01*
X50000000Y-70000000D01*
X100000000Y-70000000D01*
X100000000Y-89500000D01*
G37*
X100000000Y-89500000D02*
X50000000Y-89500000D01*
X50000000Y-70000000D01*
X100000000Y-70000000D01*
X100000000Y-89500000D01*
M02*
