%TF.GenerationSoftware,KiCad,Pcbnew,(5.1.10)-1*%
%TF.CreationDate,2021-10-09T18:12:54+02:00*%
%TF.ProjectId,ColorTest,436f6c6f-7254-4657-9374-2e6b69636164,rev?*%
%TF.SameCoordinates,Original*%
%TF.FileFunction,Soldermask,Bot*%
%TF.FilePolarity,Negative*%
%FSLAX46Y46*%
G04 Gerber Fmt 4.6, Leading zero omitted, Abs format (unit mm)*
G04 Created by KiCad (PCBNEW (5.1.10)-1) date 2021-10-09 18:12:54*
%MOMM*%
%LPD*%
G01*
G04 APERTURE LIST*
%ADD10C,0.100000*%
%ADD11C,0.200000*%
G04 APERTURE END LIST*
D10*
G36*
X80100000Y-84750000D02*
G01*
X69750000Y-84750000D01*
X69750000Y-69250000D01*
X80100000Y-69250000D01*
X80100000Y-84750000D01*
G37*
%TO.C,REF\u002A\u002A*%
D11*
X90171428Y-97357142D02*
X90685714Y-97357142D01*
X90428571Y-97357142D02*
X90428571Y-96457142D01*
X90514285Y-96585714D01*
X90600000Y-96671428D01*
X90685714Y-96714285D01*
X89614285Y-96457142D02*
X89528571Y-96457142D01*
X89442857Y-96500000D01*
X89400000Y-96542857D01*
X89357142Y-96628571D01*
X89314285Y-96800000D01*
X89314285Y-97014285D01*
X89357142Y-97185714D01*
X89400000Y-97271428D01*
X89442857Y-97314285D01*
X89528571Y-97357142D01*
X89614285Y-97357142D01*
X89700000Y-97314285D01*
X89742857Y-97271428D01*
X89785714Y-97185714D01*
X89828571Y-97014285D01*
X89828571Y-96800000D01*
X89785714Y-96628571D01*
X89742857Y-96542857D01*
X89700000Y-96500000D01*
X89614285Y-96457142D01*
X80685714Y-96542857D02*
X80642857Y-96500000D01*
X80557142Y-96457142D01*
X80342857Y-96457142D01*
X80257142Y-96500000D01*
X80214285Y-96542857D01*
X80171428Y-96628571D01*
X80171428Y-96714285D01*
X80214285Y-96842857D01*
X80728571Y-97357142D01*
X80171428Y-97357142D01*
X79614285Y-96457142D02*
X79528571Y-96457142D01*
X79442857Y-96500000D01*
X79400000Y-96542857D01*
X79357142Y-96628571D01*
X79314285Y-96800000D01*
X79314285Y-97014285D01*
X79357142Y-97185714D01*
X79400000Y-97271428D01*
X79442857Y-97314285D01*
X79528571Y-97357142D01*
X79614285Y-97357142D01*
X79700000Y-97314285D01*
X79742857Y-97271428D01*
X79785714Y-97185714D01*
X79828571Y-97014285D01*
X79828571Y-96800000D01*
X79785714Y-96628571D01*
X79742857Y-96542857D01*
X79700000Y-96500000D01*
X79614285Y-96457142D01*
X70728571Y-96457142D02*
X70171428Y-96457142D01*
X70471428Y-96800000D01*
X70342857Y-96800000D01*
X70257142Y-96842857D01*
X70214285Y-96885714D01*
X70171428Y-96971428D01*
X70171428Y-97185714D01*
X70214285Y-97271428D01*
X70257142Y-97314285D01*
X70342857Y-97357142D01*
X70600000Y-97357142D01*
X70685714Y-97314285D01*
X70728571Y-97271428D01*
X69614285Y-96457142D02*
X69528571Y-96457142D01*
X69442857Y-96500000D01*
X69400000Y-96542857D01*
X69357142Y-96628571D01*
X69314285Y-96800000D01*
X69314285Y-97014285D01*
X69357142Y-97185714D01*
X69400000Y-97271428D01*
X69442857Y-97314285D01*
X69528571Y-97357142D01*
X69614285Y-97357142D01*
X69700000Y-97314285D01*
X69742857Y-97271428D01*
X69785714Y-97185714D01*
X69828571Y-97014285D01*
X69828571Y-96800000D01*
X69785714Y-96628571D01*
X69742857Y-96542857D01*
X69700000Y-96500000D01*
X69614285Y-96457142D01*
X60257142Y-96757142D02*
X60257142Y-97357142D01*
X60471428Y-96414285D02*
X60685714Y-97057142D01*
X60128571Y-97057142D01*
X59614285Y-96457142D02*
X59528571Y-96457142D01*
X59442857Y-96500000D01*
X59400000Y-96542857D01*
X59357142Y-96628571D01*
X59314285Y-96800000D01*
X59314285Y-97014285D01*
X59357142Y-97185714D01*
X59400000Y-97271428D01*
X59442857Y-97314285D01*
X59528571Y-97357142D01*
X59614285Y-97357142D01*
X59700000Y-97314285D01*
X59742857Y-97271428D01*
X59785714Y-97185714D01*
X59828571Y-97014285D01*
X59828571Y-96800000D01*
X59785714Y-96628571D01*
X59742857Y-96542857D01*
X59700000Y-96500000D01*
X59614285Y-96457142D01*
D10*
G36*
X100000000Y-97900000D02*
G01*
X50000000Y-97900000D01*
X50000000Y-100000000D01*
X100000000Y-100000000D01*
X100000000Y-97900000D01*
G37*
X100000000Y-97900000D02*
X50000000Y-97900000D01*
X50000000Y-100000000D01*
X100000000Y-100000000D01*
X100000000Y-97900000D01*
%TD*%
M02*
